<?xml version="1.0" encoding="UTF-8"?>
<svg id="Layer_1" data-name="Layer 1" xmlns="http://www.w3.org/2000/svg" version="1.1" viewBox="0 0 708.7 336.5">
  <defs>
    <style>
      .cls-1 {
        fill: #000;
      }

      .cls-1, .cls-2 {
        stroke-width: 0px;
      }

      .cls-2 {
        fill: #ffe52c;
      }
    </style>
  </defs>
  <g>
    <path class="cls-2" d="M257.1,246.4l-96.6-167.3c-4.2-7.3-14.7-7.3-18.9,0L45,246.4c-4.2,7.3,1.1,16.4,9.5,16.4h193.2c8.4,0,13.7-9.1,9.5-16.4Z"/>
    <polygon class="cls-2" points="68.7 243.5 181.5 151.8 150.7 98.8 67.2 243.3 68.7 243.5"/>
    <path class="cls-1" d="M247.8,245.5l-91.4-158.3c-1.2-2-3.3-3.2-5.6-3.2s-4.5,1.2-5.6,3.2L53.7,245.5c-1.2,2-1.2,4.5,0,6.5,1.2,2,3.3,3.2,5.6,3.2h182.8c2.3,0,4.5-1.2,5.6-3.2,1.2-2,1.2-4.5,0-6.5ZM143.7,212.8l60.3-21.8,7.4,12.8-96.5,30.3.3,1.2,105-16.3,6.9,12-156.7,13.7h-1.3l121.9-76.3,6.8,11.8-54.5,31.6.5,1.1ZM150.7,98.8l30.5,52.9-113.8,91.2,83.2-144.1Z"/>
    <g>
      <polygon class="cls-1" points="133.2 164.8 134.9 169.3 139.4 170.9 134.9 172.6 133.2 177 131.6 172.6 127.1 170.9 131.6 169.3 133.2 164.8"/>
      <polygon class="cls-1" points="157.2 134.5 160.2 142.7 168.3 145.7 160.2 148.7 157.2 156.8 154.2 148.7 146.1 145.7 154.2 142.7 157.2 134.5"/>
      <polygon class="cls-1" points="114.7 179 116.7 184.4 122.1 186.4 116.7 188.4 114.7 193.8 112.7 188.4 107.3 186.4 112.7 184.4 114.7 179"/>
      <polygon class="cls-1" points="135.4 143.4 137.4 148.8 142.8 150.8 137.4 152.8 135.4 158.2 133.4 152.8 128 150.8 133.4 148.8 135.4 143.4"/>
      <polygon class="cls-1" points="149.7 116 151.5 120.9 156.4 122.7 151.5 124.5 149.7 129.4 147.9 124.5 143 122.7 147.9 120.9 149.7 116"/>
    </g>
  </g>
  <g>
    <g>
      <path class="cls-2" d="M358.1,73.7l-1.7,9.5h-22.9l-1.8,10.4h18.5l-1.7,9.3h-18.5l-2.1,11.6h22.9l-1.7,9.5h-33.3l8.8-50.3h33.3Z"/>
      <path class="cls-2" d="M366.3,124c-6.7,0-9.3-3.2-8-10.1l5.3-30.2c1.1-6.8,4.9-10.1,11.6-10.1h16.5c6.7,0,9.3,3.2,8.1,10.1l-1.4,8.2h-10.3l1.3-7.3c.1-1.1-.1-1.4-1.2-1.4h-12.7c-1,0-1.4.4-1.6,1.4l-5,28.4c-.2,1.1,0,1.4,1.1,1.4h12.7c1.1,0,1.5-.4,1.7-1.4l1.3-7.3h10.3l-1.4,8.2c-1.2,6.8-5,10.1-11.6,10.1h-16.5Z"/>
      <path class="cls-2" d="M410.2,124c-6.7,0-9.3-3.2-8-10.1l5.3-30.2c1.1-6.8,4.9-10.1,11.6-10.1h18.2c6.7,0,9.3,3.2,8.1,10.1l-5.3,30.2c-1.2,6.8-5,10.1-11.6,10.1h-18.2ZM412.7,113c-.2,1.1,0,1.4,1.1,1.4h14.4c1,0,1.4-.4,1.7-1.4l5-28.4c.1-1.1-.1-1.4-1.1-1.4h-14.4c-1,0-1.4.4-1.6,1.4l-5,28.4Z"/>
    </g>
    <g>
      <path class="cls-1" d="M340.5,149.6c.2-1.1,0-1.4-1.1-1.4h-11.9c-1,0-1.4.4-1.7,1.4l-.9,5.5c-.3,1.9.1,2.4,1.9,2.7l12.6,2.9c6,1.4,9.4,3.4,8.3,10.1l-1.4,8.3c-1.2,6.8-5,10.1-11.6,10.1h-16.4c-6.7,0-9.3-3.2-8-10.1l1.1-6.3h10.1l-1,5.6c-.1,1.1.1,1.4,1.2,1.4h12.8c1.1,0,1.5-.4,1.7-1.4l1.1-6c.4-1.9-.2-2.3-1.9-2.7l-12.6-2.9c-6-1.4-9.4-3.4-8.3-10.1l1.4-7.8c1.1-6.8,4.9-10.1,11.6-10.1h15.4c6.7,0,9.3,3.2,8.1,10.1l-1,5.7h-10.1l.9-5Z"/>
      <path class="cls-1" d="M380.4,148.2l-7.3,40.9h-10.3l7.3-40.9h-13.3l1.6-9.3h36.9l-1.6,9.3h-13.3Z"/>
      <path class="cls-1" d="M428.7,138.8c6.7,0,9.3,3.2,8.1,10.1l-2.2,12.1c-1,5.7-3.8,8.9-8.5,9.8l5.2,18.3h-10.6l-5-17.7h-8.4l-3.2,17.7h-10.3l8.8-50.3h26.1ZM426.3,149.6c.2-1.1,0-1.4-1.1-1.4h-13.9l-2.5,14h13.9c1,0,1.4-.4,1.7-1.4l1.9-11.1Z"/>
      <path class="cls-1" d="M451.2,178.2l-4.9,10.9h-11.2l23.8-50.3h14.9l6.2,50.3h-11.1l-1.1-10.9h-16.7ZM465,147.6l-9.5,21.1h11.6l-2.1-21.1Z"/>
      <path class="cls-1" d="M495.6,138.8h10.3l-3.4,19.8h17.2l3.4-19.8h10.3l-8.8,50.3h-10.3l3.7-21h-17.2l-3.7,21h-10.3l8.8-50.3Z"/>
      <path class="cls-1" d="M554.8,138.8l-7.2,40.8h21.1l-1.7,9.5h-31.5l8.8-50.3h10.3Z"/>
    </g>
    <g>
      <path class="cls-1" d="M333.6,205h-26.1l-8.8,50.3h10.3l3.2-17.7h8.4l5,17.7h10.6l-5.2-18.3c4.7-.9,7.5-4.1,8.5-9.8l2.2-12.1c1.1-6.8-1.4-10.1-8.1-10.1ZM331.2,215.8l-1.9,11.1c-.2,1.1-.6,1.4-1.7,1.4h-13.9l2.5-14h13.9c1,0,1.3.4,1.1,1.4Z"/>
      <polygon class="cls-1" points="384.9 214.5 386.5 205 353.3 205 344.5 255.3 377.7 255.3 379.4 245.8 356.5 245.8 358.5 234.2 377.1 234.2 378.7 224.9 360.2 224.9 362 214.5 384.9 214.5"/>
      <polygon class="cls-1" points="386.5 255.3 396.9 255.3 405.7 205 395.4 205 386.5 255.3"/>
      <polygon class="cls-1" points="440.3 237.4 426.9 205 416.7 205 407.9 255.3 417.9 255.3 423.8 221.7 437.7 255.3 447.2 255.3 456 205 446 205 440.3 237.4"/>
      <polygon class="cls-1" points="458.2 255.3 468.5 255.3 477.3 205 467 205 458.2 255.3"/>
      <path class="cls-1" d="M514.1,205h-17.1c-6.7,0-10.4,3.2-11.6,10.1l-5.3,30.2c-1.2,6.8,1.4,10.1,8,10.1h17.1c6.7,0,10.4-3.2,11.6-10.1l3.1-17.7h-19.5l-1.6,9.1h9.1l-1.4,7.8c-.2,1.1-.6,1.4-1.7,1.4h-13.4c-1,0-1.3-.4-1.1-1.4l5-28.4c.1-1.1.6-1.4,1.6-1.4h13.4c1.1,0,1.3.4,1.1,1.4l-1,5.7h10.3l1.1-6.6c1.1-6.8-1.4-10.1-8.1-10.1Z"/>
      <path class="cls-1" d="M552.9,244.4c-.2,1.1-.6,1.4-1.7,1.4h-13.5c-1,0-1.3-.4-1.1-1.4l6.9-39.4h-10.3l-7,40.2c-1.2,6.8,1.4,10.1,8,10.1h17.3c6.6,0,10.4-3.2,11.6-10.1l7-40.2h-10.3l-6.9,39.4Z"/>
      <polygon class="cls-1" points="604.3 237.4 590.9 205 580.7 205 571.9 255.3 581.9 255.3 587.8 221.7 601.7 255.3 611.2 255.3 620 205 609.9 205 604.3 237.4"/>
      <path class="cls-1" d="M656.8,205h-17.1c-6.7,0-10.4,3.2-11.6,10.1l-5.3,30.2c-1.2,6.8,1.4,10.1,8,10.1h17.1c6.7,0,10.4-3.2,11.6-10.1l3.1-17.7h-19.5l-1.6,9.1h9.1l-1.4,7.8c-.2,1.1-.6,1.4-1.7,1.4h-13.4c-1,0-1.3-.4-1.1-1.4l5-28.4c.1-1.1.6-1.4,1.6-1.4h13.4c1.1,0,1.3.4,1.1,1.4l-1,5.7h10.3l1.1-6.6c1.1-6.8-1.4-10.1-8.1-10.1Z"/>
    </g>
  </g>
</svg>